Coordinates
version=1
nRows=5
nColumns=40
inDegrees=yes

Units are S.I. units (second, meters, Newtons, ...)
Angles are in degrees.

endheader
time	pelvis_tilt	pelvis_list	pelvis_rotation	pelvis_tx	pelvis_ty	pelvis_tz	hip_flexion_r	hip_adduction_r	hip_rotation_r	knee_angle_r	knee_angle_r_beta	ankle_angle_r	subtalar_angle_r	mtp_angle_r	hip_flexion_l	hip_adduction_l	hip_rotation_l	knee_angle_l	knee_angle_l_beta	ankle_angle_l	subtalar_angle_l	mtp_angle_l	lumbar_extension	lumbar_bending	lumbar_rotation	arm_flex_r	arm_add_r	arm_rot_r	elbow_flex_r	pro_sup_r	wrist_flex_r	wrist_dev_r	arm_flex_l	arm_add_l	arm_rot_l	elbow_flex_l	pro_sup_l	wrist_flex_l	wrist_dev_l
     18.49000000	      0.31649302	     -4.50666028	      2.99886837	      0.84331975	      0.91379915	      0.54380752	     12.04274371	      5.35522416	    -13.10070250	     30.21190029	     30.21190029	     19.27929208	    -11.56245902	     -0.27197910	     26.95266122	    -17.18241886	     -2.24118264	     52.83435855	     52.83435855	     18.19450988	    -19.59378457	     23.11926228	    -11.52880786	      6.86217971	      3.05353963	     25.61831175	    -15.15928842	     -4.78131903	     52.63629783	     45.93484641	      0.00000000	      0.00000000	      1.62413453	     -9.11075821	    -12.29732128	     47.69786651	     46.97887656	      0.00000000	      0.00000000
     18.50971429	      0.37073772	     -4.37680139	      3.65559273	      0.84172544	      0.91256947	      0.54344804	     11.97374253	      5.23649866	    -13.21166100	     30.76340942	     30.76340942	     19.75998948	    -12.35102467	      0.10962407	     27.55687613	    -16.63861254	     -1.78409227	     51.06249552	     51.06249552	     17.84168790	    -19.56272357	     22.74464378	    -11.61138251	      6.68705435	      2.95824539	     27.36323519	    -14.50816285	     -4.37221182	     54.36143279	     45.84901768	      0.00000000	      0.00000000	      0.54617438	     -7.99341240	    -11.59300106	     43.88316887	     46.86079623	      0.00000000	      0.00000000
     18.52942857	      0.38451431	     -4.10822629	      4.27797055	      0.84018455	      0.91178743	      0.54282748	     11.82673899	      4.95968142	    -13.30013903	     31.12795666	     31.12795666	     20.11158665	    -13.02417673	      0.15777971	     28.03666762	    -15.88792451	     -1.36201305	     49.17394545	     49.17394545	     17.48981533	    -19.53646816	     22.65284827	    -11.69858850	      6.30955674	      2.70797743	     29.19349717	    -13.59579296	     -4.15020907	     55.92493932	     45.78906427	      0.00000000	      0.00000000	     -1.08236944	     -7.13308568	    -11.10878533	     41.53740879	     46.77116509	      0.00000000	      0.00000000
     18.54914286	      0.28498312	     -3.96077525	      4.96081668	      0.83872890	      0.91144132	      0.54191775	     11.57200355	      4.82032046	    -13.52108013	     31.05230485	     31.05230485	     20.40210007	    -13.50870246	      0.49930099	     28.57044800	    -15.18995455	     -0.81092410	     47.19811592	     47.19811592	     16.70382206	    -19.47807814	     21.47470226	    -11.56040089	      6.14592957	      3.15477570	     30.42714564	    -13.60345982	     -3.20961393	     57.99290587	     45.67116045	      0.00000000	      0.00000000	     -1.10639278	     -6.30712409	    -10.00130084	     35.89275179	     46.60103730	      0.00000000	      0.00000000
     18.56885714	      0.18639195	     -3.74120769	      5.65070391	      0.83735141	      0.91164885	      0.54074585	     11.17508390	      4.59253430	    -13.79389458	     30.74852142	     30.74852142	     20.54900897	    -13.85287480	      0.60234267	     28.99049541	    -14.33432610	     -0.16049628	     45.21365543	     45.21365543	     16.18032070	    -19.40907930	     21.29566941	    -11.52548362	      5.84688908	      2.90945181	     32.01645439	    -12.77163154	     -2.98975278	     59.82571975	     45.60289157	      0.00000000	      0.00000000	     -2.70862591	     -5.81881917	     -9.58898805	     33.91174164	     46.51512212	      0.00000000	      0.00000000
